<?xml version="1.0" standalone="no"?>
<!DOCTYPE svg PUBLIC "-//W3C//DTD SVG 20010904//EN"
 "http://www.w3.org/TR/2001/REC-SVG-20010904/DTD/svg10.dtd">
<svg version="1.0" xmlns="http://www.w3.org/2000/svg"
 width="4537.000000pt" height="3129.000000pt" viewBox="0 0 4537.000000 3129.000000"
 preserveAspectRatio="xMidYMid meet">
<metadata>
Created by potrace 1.11, written by Peter Selinger 2001-2013
</metadata>
<g transform="translate(0.000000,3129.000000) scale(0.100000,-0.100000)"
fill="#000000" stroke="none">
<path d="M0 15645 l0 -15645 22615 0 c15069 0 22615 3 22616 10 1 6 2 52 3
103 l1 92 57 0 c31 0 59 3 62 6 4 3 -22 30 -56 58 l-63 53 0 15484 0 15484
-22617 0 -22618 0 0 -15645z m44518 -7315 l-3 -7390 -8278 7096 c-4554 3902
-8277 7097 -8275 7099 1 1 3727 3459 8278 7684 l8275 7681 3 -7390 c1 -4065 1
-10716 0 -14780z m-35459 14395 c4555 -4228 8281 -7691 8279 -7695 -3 -10
-16615 -14250 -16623 -14250 -3 0 -5 6681 -5 14846 l0 14846 34 -30 c18 -16
3760 -3488 8315 -7717z m33598 7023 c-10403 -9659 -20053 -18613 -20057
-18613 -4 0 -249 225 -546 500 -1184 1100 -20200 18748 -20208 18756 -6 5
9206 9 20752 9 l20762 0 -703 -652z m-7221 -21964 c4399 -3771 8001 -6858
8003 -6860 2 -2 -9325 -4 -20728 -4 l-20733 0 7946 6811 7946 6811 35 -29 c18
-15 1080 -1000 2360 -2188 1279 -1188 2329 -2161 2333 -2162 4 -1 1092 1005
2417 2237 1326 1231 2413 2239 2416 2239 3 1 3605 -3084 8005 -6855z"/>
</g>
</svg>
